<?xml version="1.0" encoding="UTF-8" standalone="no"?>
<svg
   version="1.1"
   data-browser="Safari[11.0]"
   preserveAspectRatio="xMidYMid"
   viewBox="0 0 125 125"
   id="svg10"
   sodipodi:docname="IOT_logo.svg"
   width="125"
   height="125"
   inkscape:version="1.3.2 (091e20e, 2023-11-25, custom)"
   inkscape:export-filename="IOT_logo.png"
   inkscape:export-xdpi="1000"
   inkscape:export-ydpi="1000"
   xmlns:inkscape="http://www.inkscape.org/namespaces/inkscape"
   xmlns:sodipodi="http://sodipodi.sourceforge.net/DTD/sodipodi-0.dtd"
   xmlns="http://www.w3.org/2000/svg"
   xmlns:svg="http://www.w3.org/2000/svg">
  <defs
     id="defs10" />
  <sodipodi:namedview
     id="namedview10"
     pagecolor="#ffffff"
     bordercolor="#000000"
     borderopacity="0.25"
     inkscape:showpageshadow="2"
     inkscape:pageopacity="0.0"
     inkscape:pagecheckerboard="0"
     inkscape:deskcolor="#d1d1d1"
     inkscape:zoom="2.7538682"
     inkscape:cx="37.583497"
     inkscape:cy="74.985432"
     inkscape:window-width="1920"
     inkscape:window-height="1111"
     inkscape:window-x="2391"
     inkscape:window-y="-9"
     inkscape:window-maximized="1"
     inkscape:current-layer="svg10" />
  <g
     id="logo__item--logo_0"
     class="logo__item"
     transform="translate(-78.768653,-1.2713958)">
    <g
       class="logo__item__inner"
       transform="matrix(1.3962658,0,0,1.3962658,73.6137,-6.5)"
       id="g10">
      <g
         id="g9">
        <path
           fill="#ffffff"
           d="m 49.006,7.456 c -1.063,2.275 -2.069,4.563 -3.029,6.89 -2.765,6.078 -5.62,12.114 -8.141,18.306 6.658,-3.4 14.322,-3.452 21.199,-0.606 C 56.85,26.02 54.24,20.177 51.668,14.321 50.875,11.993 49.986,9.705 49.006,7.456 m -1.811,25.659 c -2.146,1.953 -1.851,5.108 -2.005,7.731 0.103,12.885 -0.103,25.788 0.09,38.679 0.116,2.348 0.58,6.742 3.809,6.421 2.385,-1.147 2.797,-3.99 2.759,-6.343 -0.09,-13.768 -0.038,-27.548 -0.025,-41.329 0.103,-2.536 -1.373,-6.89 -4.628,-5.159 m -11.093,9.166 c -0.167,12.456 0.013,24.895 -0.09,37.348 -0.245,2.83 1.083,6.601 4.628,5.814 l -0.025,-0.696 c 1.463,-2.314 1.669,-5.053 1.63,-7.715 -0.052,-9.895 -0.052,-19.794 0,-29.683 -0.045,-2.922 0.103,-6.074 -1.682,-8.572 l 0.039,-0.786 c -2.56,-0.3 -4.667,1.744 -4.5,4.29 m 20.246,-3.864 c -1.928,2.068 -1.477,5.095 -1.592,7.667 0.129,11.644 -0.064,23.297 0.076,34.925 0.053,2.023 1.322,5.362 3.906,4.615 3.358,-1.38 2.753,-5.712 2.973,-8.663 -0.22,-11.615 0.335,-23.255 -0.284,-34.848 0.206,-2.662 -2.494,-5.646 -5.079,-3.696 M 35.116,89.671 c 6.259,4.977 14.921,3.688 22.353,3.249 2.096,-0.516 6.878,-0.426 5.975,-3.687 -9.037,-3.055 -19.407,-3.094 -28.328,0.438"
           id="path1" />
        <path
           fill="#ffffff"
           d="m 47.685,83.678 c -0.296,-16.063 -0.232,-32.125 0,-48.185 0.27,16.06 0.219,32.122 0,48.185"
           id="path2" />
        <path
           fill="#343333"
           d="m 49.006,7.456 c 0.98,2.249 1.869,4.538 2.662,6.865 -1.901,0.013 -3.79,0.013 -5.691,0.025 0.96,-2.327 1.965,-4.616 3.029,-6.89"
           id="path3" />
        <path
           fill="#fcd4b5"
           d="m 45.977,14.346 c 1.901,-0.013 3.79,-0.013 5.691,-0.025 2.572,5.855 5.183,11.698 7.367,17.725 -6.877,-2.845 -14.547,-2.794 -21.199,0.606 2.52,-6.192 5.375,-12.228 8.141,-18.306"
           id="path4" />
        <path
           fill="#800000"
           d="m 47.195,33.115 c 3.255,-1.731 4.73,2.626 4.628,5.159 -0.013,13.781 -0.064,27.562 0.025,41.329 0.038,2.353 -0.374,5.195 -2.759,6.343 -3.229,0.328 -3.693,-4.067 -3.809,-6.421 -0.193,-12.891 0.013,-25.794 -0.09,-38.679 0.155,-2.623 -0.141,-5.778 2.005,-7.731 m 0.49,50.563 c 0.219,-16.063 0.271,-32.125 0,-48.185 -0.232,16.06 -0.297,32.122 0,48.185"
           id="path5" />
        <path
           fill="#343333"
           d="m 36.102,42.281 c -0.167,-2.546 1.94,-4.586 4.499,-4.293 l -0.039,0.79 c -0.477,15.302 -0.452,30.668 0.052,45.97 l 0.025,0.696 C 37.094,86.23 35.766,82.46 36.011,79.63 36.115,67.176 35.935,54.729 36.102,42.281"
           id="path6" />
        <path
           fill="#959595"
           d="m 56.348,38.417 c 2.585,-1.954 5.285,1.034 5.079,3.696 0.619,11.593 0.064,23.232 0.284,34.848 -0.22,2.951 0.386,7.283 -2.973,8.663 -2.584,0.747 -3.854,-2.592 -3.906,-4.615 -0.141,-11.628 0.053,-23.281 -0.076,-34.925 0.115,-2.572 -0.336,-5.599 1.592,-7.667"
           id="path7" />
        <path
           fill="#343333"
           d="m 40.563,38.777 c 1.785,2.498 1.637,5.65 1.682,8.57 -0.052,9.891 -0.052,19.791 0,29.678 0.039,2.669 -0.167,5.407 -1.63,7.722 -0.504,-15.302 -0.53,-30.668 -0.052,-45.97"
           id="path8" />
        <path
           fill="#e4e4e4"
           d="m 35.116,89.671 c 8.921,-3.532 19.292,-3.493 28.328,-0.438 0.903,3.261 -3.879,3.171 -5.975,3.687 -7.432,0.438 -16.094,1.727 -22.353,-3.249"
           id="path9" />
      </g>
    </g>
  </g>
</svg>
